<svg id="Layer_1" data-name="Layer 1" xmlns="http://www.w3.org/2000/svg" xmlns:xlink="http://www.w3.org/1999/xlink" viewBox="0 0 850.11 283.46"><defs><style>.cls-1{fill:none;}.cls-2,.cls-4{fill-rule:evenodd;}.cls-3{clip-path:url(#clip-path);}.cls-4{fill:#fff;}</style><clipPath id="clip-path"><rect class="cls-1" x="61.83" y="85.91" width="726.46" height="111.65"/></clipPath></defs><title>Artboard 1</title><path class="cls-2" d="M404.1,144.26h0ZM504.83,160.9c-7.89,5.77-10,2.25-12.62,1.92.42-1,1.2-4.32-2.39-6.83a16.55,16.55,0,0,0-10.5-3,12.52,12.52,0,0,1-.62,2.25,9.55,9.55,0,0,1-3,4,5.78,5.78,0,0,1-4.05,1c0,.1-.06.62-.06.92a19.1,19.1,0,0,1-.13,2.14,22.39,22.39,0,0,1-2.35,7.21l-.09-.1,9.06,9.84a1.63,1.63,0,0,0,2.52-.05c1-1.14-.33-2.58-.33-2.58l-9.37-10.2c1.86-.93,5.39-1.35,8.85-.8a9.14,9.14,0,0,1,1.63.43l-1.18,2.07h0c-1.27,2.25,2.52,6.4,10.12,7.61a14.18,14.18,0,0,0,13.5-4.75,12.45,12.45,0,0,1-7.44-2.35,13.71,13.71,0,0,0,8.51-8.82Zm-13.63,1.76L486,172.82c.56-1.42,1-3.29-1.07-5.07.16,0,4.85-9.58,4.85-9.58a3.41,3.41,0,0,1,1.63,3,7.15,7.15,0,0,1-.22,1.52Zm0,0"/><path class="cls-2" d="M470.87,159.64l0-.15.12,0a5.38,5.38,0,0,0,4.24-.69,8.15,8.15,0,0,0,2.87-3.62,9.46,9.46,0,0,0,.68-2.13l0,0a28,28,0,0,0-1.1-9.12,5.68,5.68,0,0,0,3-1.61c1.47-1.43,4.79-5.85,3.72-15.81-1.25-11.35-7.05-21.29-17.13-30.16l1.3-1.36L469.7,98l4.79-11.76L462.26,92l3.75,1-1.34,1.45-.32-.23-2.06,2.13.39.36-1,1.14a1.62,1.62,0,0,1-.33-.33l-2.15,2.25s.13.13.36.33l-1.14,1.22-.36-.34-3.53,3.65a2.2,2.2,0,0,0,.3.28l-1.54,1.85.76.76,1.86,1.4,1.69-1.9c3.69,3.29,10.44,10,12.3,16.2,1.25,4.12,1.7,8.36.07,10.89a4.85,4.85,0,0,0-2.91-.42c-1.2.16-2,1.25-1.79,3.65.23,2.61,1.57,9.28.65,11.29a6.47,6.47,0,0,0-2.9-1.26c-3.36-.51-3.07,3.24-4,7.53l-3.76-4-2.48,2.27,5,5.33a4.79,4.79,0,0,0-3.62,2.24c-1.71,2.63,1.92,4.89,3.62,7.63,1.33,2.18.81,6.34,4.63,6.34,2.67,0,5-2.47,6.13-4.67v0a22.73,22.73,0,0,0,2.18-6.61,21.09,21.09,0,0,0,.2-3.72Zm-7.36-53.29a1.88,1.88,0,0,1-2.23.37l-2-1.84,2.41-2.59a22.42,22.42,0,0,1,1.82,1.63,1.83,1.83,0,0,1,.05,2.43Zm3.94-3.78a1.84,1.84,0,0,1-2.51.13c-.69-.59-1.37-1.21-2-1.84l2.44-2.65c1.05,1,2,1.88,2.09,2a1.89,1.89,0,0,1,0,2.38Zm3.16,33,10.27,4.86a6.57,6.57,0,0,1-3.09,2.44l-10.71-5.14c1.93.17,2.88,0,3.53-2.16Zm-9.1,37.77c-1.3-.25-1.5-1.92-2-3.71-.49-1.55-3.43-5.5-4.63-6.89a2.47,2.47,0,0,0,3.1.25l6.19,9.62c-1.57,1.26-1.89.9-2.64.73ZM462,151c.82.34,4,3.34,4.86-.75l8.38,7.11c-1.37,1.17-3.06,2.13-5.54.6-.1-.06-5.91-5.36-7.7-7Zm0,0"/><g class="cls-3"><path class="cls-4" d="M479.32,153v0l-.52,0v0l.52-.05Zm-10.83,17,.49.49-.49-.52Zm0,0"/><path class="cls-2" d="M219.87,120.07c-2.52,2.15-10.69,9.77-10.69,12.07v31.49c0,3.63,3,8,5.85,9.91a17.61,17.61,0,0,0,5.84,2.81l.17,0,8.75-13.06v2.44a45.69,45.69,0,0,0,.34,5.32c.26,1.71,1.66,3.38,2.83,4.56s3,3.66,3.32,8.6c.36,6.1-3.78,11-9,11-4.7,0-8.5-1.94-10.14-4.06a1.4,1.4,0,0,1-.07-.39.65.65,0,0,1,.24-.52,6.72,6.72,0,0,0,3.2.74c2.11,0,4.78-2.49,4.78-5.54a5.5,5.5,0,0,0-5.65-5.74c-3.89,0-6.29,3.8-6.29,6.23v.15a9.5,9.5,0,0,0,2.41,6.92c2.3,2.38,6.19,4.34,11.52,4.38,13.38.1,19.58-9.69,19.58-18.47,0-3.74-1.91-6.1-3.2-8,0,0-.6-.89-.86-1.37-1-1.77-.9-5.47-.9-5.47V123.38a11.57,11.57,0,0,1,.3-2.74,2,2,0,0,1,.6-.82l.35-.24-.34-.25c-.39-.29-9.62-7-10.79-7.52-1.84-.89-10.09,6.46-12.18,8.26Zm9.92,6.13v34.35c-.23.34-2.22,3.15-5,3.15-3.52,0-3.57-4.45-3.57-4.63V129c0-1.19.08-3.77.08-3.77a5.41,5.41,0,0,1,2.23-4.32l.07,0c1.19-.64,6.2,3,6.2,5.37ZM646,121.13c-3.06,2.09-5.84,4.23-5.84,7.46v35c0,3,1.93,5.69,5.84,8.4a47.39,47.39,0,0,0,8.87,4.3l.2.07,8.42-11a20,20,0,0,1-9.14-2.94c-2.15-1.47-2.19-4.59-2.19-5.09V144.59c.85-.36,4.41-2.27,10.48-5.87,4.6-2.74,6.56-6.57,6.56-10.82a24.52,24.52,0,0,0-.23-2.84c-.56-4.42-4.7-12.64-5.94-13.25-1.82-.89-16.87,9.22-17,9.32Zm6.16,2.43a6,6,0,0,1,.46-2.68,2.55,2.55,0,0,1,1.15-1h0c.81.13,5.19,6.11,5.19,11.91,0,5.33-1.67,7.32-3.36,8.36a24.73,24.73,0,0,1-3.47,1.84ZM257,121.13c-3.09,2.09-5.86,4.23-5.86,7.46v35c0,3,1.91,5.69,5.86,8.4a45.61,45.61,0,0,0,8.87,4.3l.17.07,8.42-11a20,20,0,0,1-9.13-2.94c-2.15-1.47-2.17-4.59-2.17-5.09V144.59c.83-.36,4.4-2.27,10.46-5.87,4.58-2.74,6.53-6.57,6.53-10.82a23.16,23.16,0,0,0-.19-2.84c-.57-4.42-4.72-12.64-6-13.25-1.82-.89-16.86,9.22-17,9.32Zm6.16,2.43a5.79,5.79,0,0,1,.44-2.68,2.66,2.66,0,0,1,1.13-1h.05c.83.13,5.2,6.11,5.2,11.91,0,5.33-1.66,7.32-3.38,8.36a26.41,26.41,0,0,1-3.44,1.84Zm-108.86-2.43c-3.1,2.09-5.87,4.23-5.87,7.46v35c0,3,1.92,5.69,5.87,8.4a46,46,0,0,0,8.85,4.3l.2.06,8.42-11a19.84,19.84,0,0,1-9.12-3c-2.19-1.47-2.2-4.58-2.2-5.09v-12.8c.84-.36,4.42-2.27,10.45-5.88,4.61-2.74,6.58-6.57,6.58-10.81a23.33,23.33,0,0,0-.21-2.84c-.57-4.42-4.72-12.65-6-13.25-1.84-.89-16.86,9.22-17,9.32Zm6.14,2.43a6.07,6.07,0,0,1,.44-2.68,2.84,2.84,0,0,1,1.14-1H162c.82.13,5.19,6.11,5.19,11.91,0,5.33-1.65,7.32-3.38,8.36a23.69,23.69,0,0,1-3.44,1.84Zm604.4-2.43c-3.07,2.09-5.84,4.23-5.84,7.46v35c0,3,1.89,5.69,5.84,8.4a46.78,46.78,0,0,0,8.87,4.3l.19.07,8.42-11a20.05,20.05,0,0,1-9.13-2.94C771,161,771,157.9,771,157.4V144.59c.82-.36,4.38-2.27,10.44-5.87C786,136,788,132.15,788,127.9a23.32,23.32,0,0,0-.2-2.84c-.59-4.42-4.72-12.64-6-13.25-1.8-.89-16.83,9.22-17,9.32Zm6.19,2.43a6.5,6.5,0,0,1,.4-2.68,2.77,2.77,0,0,1,1.17-1h0c.82.13,5.22,6.11,5.22,11.91,0,5.33-1.66,7.32-3.38,8.36A27,27,0,0,1,771,142Zm-426.5-10.78c-.09,0-8.13,3.58-13.44,9.64a21.25,21.25,0,0,0-4.9,11.5c-.17,3.88.33,9.08,3.59,11.79a7.6,7.6,0,0,0,7,1.62c1.71-.46,5.42-1.64,6.59-2,1.93-.59,2.61-.07,2.82.38a18.43,18.43,0,0,1,.36,3.85l0,16.7a8.54,8.54,0,0,0-9.29-4c-7.32,1.44-10.36,12.85-10.49,13.34l-.05.18,1,.85.16-.31c0-.05,2.06-3.69,5-3.41,3.38.31,5.3,3.49,5.32,3.53l.15.21.31-.17c13.88-4,21-11.69,21.17-22.89.07-5.29-.68-7.75-3.07-10.17-3.09-3.7-9.65-3.93-18-.7,0-.77,0-16.86,0-18.29a7.66,7.66,0,0,0,5.22,2.19c8.43.5,12.08-12.32,12.23-12.85l0-.2-1-.83-.16.31s-2.06,3.69-5,3.4c-3.38-.32-5.3-3.47-5.32-3.5l-.13-.23ZM67.16,93.92a18.7,18.7,0,0,0-5,13c.38,12.44,8.39,17.1,8.39,17.1L71,123A16,16,0,0,1,67.51,114a11.83,11.83,0,0,1,7.26-11.32c6.33-2.73,13.46-.07,19,7.11a33.82,33.82,0,0,1,7.32,21.24c0,9.59-4.57,18.77-4.57,18.77l.58.82s15.36-12.74,15.36-37.19a27.75,27.75,0,0,0-.43-4.51,20.19,20.19,0,0,1,2.64-3.89l2.71-3.36v24.68s-3,.65-3,2.58c0,2.12,3,2.59,3,2.59V154a7.24,7.24,0,0,0-5.56,1.71l-7.11,7.53S90,149.16,88.79,146.7a10.42,10.42,0,0,1-1-4.78,7,7,0,0,1,1.06-3.81c1.11-1.68,3.89-1.66,3.89-1.66l.08-.85a13,13,0,0,0-8,3.06,16.65,16.65,0,0,0-5.56,11.76c-.07,3.86.81,6.68,3.16,10.54,2.11,3.37,14.29,14.6,14.29,14.6l12.9-14.93s-1,4.81.93,8.71c2.47,5,6.58,7.21,12.89,7.21,7.67,0,13.07-3.74,16.12-11.29a39.1,39.1,0,0,0,2.35-14.11c0-5.82-1-11.73-2.52-15a16.29,16.29,0,0,0-7.74-7.64,41.26,41.26,0,0,0,6.49-5.12c3.33-3.2,4.68-6.84,4.5-10.29-.26-4.55-2-8.11-5.22-12-2.93-3.6-3.83-6.46-3.83-8.47a7,7,0,0,1,.15-1.49c.29-1.83,3.23-3.36,3.23-3.36v-.82S126.1,91.47,120.57,96a50.8,50.8,0,0,0-9.25,10.08c-4.32-12-13.83-19.31-24.7-19.71-5.83-.2-14.11,2-19.46,7.56Zm55.69,67.55a5.89,5.89,0,0,0-2.7-6.76V131.62a15.54,15.54,0,0,0,2.66-.05,22.27,22.27,0,0,0,3.44-.64s.77.59.82,4.1v32.35a9.42,9.42,0,0,1-.57,4.12c-.26.59-2.74,4.23-8.3,1.88-8.08-3.43-6.67-10.76-6.56-11.58a6,6,0,0,0,5.24,4.3c2.88.21,5.36-2.17,6-4.63Zm2.6-66.5a19.6,19.6,0,0,0-2.14,9.23c0,3.65,1.85,7.39,4,10,1.7,2.12,4.08,3.72,4.08,7.42,0,2.89-2.54,5.39-2.64,5.48a29.12,29.12,0,0,0-8.45-.93V99.12A21.49,21.49,0,0,1,125.45,95Zm603.08-7.53a9.78,9.78,0,0,0-5.9,5.37,12.19,12.19,0,0,0-1,4.8c0,3.64,1.79,6.72,3.75,9.62l6.37,8.71c-4.38,2.46-13.87,8.27-13.87,12.06v35.93c0,3.4,3,7.72,5.84,9.63,3.91,2.64,5.81,2.95,6.07,2.75l-.13.05c2.87-.37,5-1.05,9.59-3.11,4-1.8,11.22-6.1,11.22-8.24l0-39.88v-1.55c-.29-5-1.85-8-4.63-11.66l-7.27-9.51c-5.68-7.26-7.8-10-6.46-11.58a1.12,1.12,0,0,1,.91-.5c1.4,0,3.17,1.81,3.2,1.83l.2.21,1.69-1.79-.19-.2a9.65,9.65,0,0,0-9.41-2.94Zm1.38,72.87-.1-38.37c0-1.17,2-3.37,3.07-3.8a.45.45,0,0,1,.29-.06c1.5,1.6,5.32,6.31,5.32,8.9v40.15c-.72.32-3.88,1.51-6.16-.11-1.51-1.1-2.42-1.77-2.42-6.71ZM610.31,87.44a9.85,9.85,0,0,0-5.91,5.37,12.19,12.19,0,0,0-1,4.8c0,3.64,1.83,6.72,3.72,9.62,2,2.69,5.55,7.54,6.39,8.71-4.4,2.46-13.86,8.27-13.86,12.06v35.93c0,3.4,3,7.72,5.84,9.63,3.94,2.64,5.81,2.95,6.07,2.75l-.13.05c2.87-.37,5-1.05,9.59-3.11,4-1.8,11.22-6.1,11.22-8.24l0-39.88v-1.55c-.29-5-1.85-8-4.63-11.66l-7.31-9.51c-5.64-7.26-7.77-10-6.46-11.58a1.29,1.29,0,0,1,.95-.5c1.41,0,3.17,1.81,3.2,1.83l.19.21,1.66-1.79-.16-.2a9.61,9.61,0,0,0-9.39-2.94Zm1.37,72.87-.1-38.37c0-1.17,2-3.37,3.06-3.8a.58.58,0,0,1,.34-.06c1.46,1.6,5.28,6.31,5.28,8.9v40.15c-.72.32-3.89,1.51-6.13-.11-1.54-1.1-2.45-1.77-2.45-6.71ZM518.47,87.87c-7.17,3.77-11.12,13-9.39,21.4a10.42,10.42,0,0,0,17.32,5.49c.1-.1.1-.13.1-.13l-1-1.21-.09.07a9.46,9.46,0,0,1-5.78,2.26,8.33,8.33,0,0,1-7.77-5.59,9.87,9.87,0,0,1,3.8-10.21,10.84,10.84,0,0,1,10-.39s30.64,16.07,30.64,16.07a24,24,0,0,0-12.18,13.82c-1.29,4,.5,10.14,2.13,13.22s3.39,6.07,3.39,9.59a9.76,9.76,0,0,1-1.14,4.85c-1.2,2.39-5.84,4.16-5.84,4.16s-15.34-9.21-9-30.81c2.19-7.6,9.85-13,9.85-13l-.84-1s-18.63,7.6-22,23.17c-1.5,7.11-1.47,17.6,4.61,25.77,7.14,9.62,22.47,13.94,32.68,9a25.17,25.17,0,0,0,10.05-8.25c3.88-5.2,5.28-13.43,5.28-13.43h-1.66s-1,5.31-3.71,7.91c-7.28,7.16-20.17,3.73-23.11,2a59.94,59.94,0,0,0,7.15-3.72c6.56-4.3,9.23-11.35,9.23-14.16,0,0,.76-5.53-3.17-12.25a34.74,34.74,0,0,1-2.67-5.4c-2.08-5.59,2.88-10.72,2.88-10.72A14.23,14.23,0,0,0,570,114.49c3.46-3.13,5-6.29,5.25-9.33.45-6.36-6.27-8.4-6.27-8.4l-.81,1.61s4.07,2,4.4,3.66a3.37,3.37,0,0,1-.62,2.92,3.1,3.1,0,0,1-3.32.51l-25-13c-8-4.34-15.93-9-25.16-4.6Zm59.31,6.78c0,4.85,4.63,11.19,6.3,11.19s6.29-6.35,6.29-11.19a6.3,6.3,0,1,0-12.59,0Zm0,0"/></g><path class="cls-2" d="M582.94,111.8l-9.24,11.12a5.57,5.57,0,0,1,3.63,1.83,3.62,3.62,0,0,1,.95,2.41l0,37.71c0,5.24,1.66,7.38,2.48,8.4,1.31,1.68,4.47,2.92,4.6,3l.17.08,8.87-10.91a4.82,4.82,0,0,1-3.14-1.66,5.27,5.27,0,0,1-.85-2.8s-.06-.84-.06-2.26V123.08c0-5.22-1.66-7.36-2.48-8.4-1.31-1.66-4.44-2.92-4.57-3l-.2-.08Zm-262.65,52a5.49,5.49,0,0,1-.84-3.42V126.25c0-3-.17-5.9-2.36-8.9a20.49,20.49,0,0,0-6.82-5.53l-.13-.08-.14.08a36.69,36.69,0,0,0-6.38,5.51,51.71,51.71,0,0,0-4.86,6.17,14,14,0,0,0-3.44-7.88,16.42,16.42,0,0,0-5.83-3.82l-.21-.06-.13.16L283.28,122a14,14,0,0,1,1.76.94,3.83,3.83,0,0,1,1.78,3.33V165c0,5.23,1.66,7.37,2.48,8.38,1.29,1.7,4.44,2.95,4.57,3l.19.07,9-11a3.52,3.52,0,0,1-3.25-1.66,6,6,0,0,1-1-3.31V128.28c0-2.12,2.55-4.35,5-4.35s3.64,2.25,3.64,4.35v36.65c0,5.26,1.66,7.4,2.46,8.41,1.31,1.69,4.45,2.95,4.59,3l.17.06,8.86-11a4.77,4.77,0,0,1-3.23-1.64Zm389,0a5.63,5.63,0,0,1-.81-3.42V126.25c0-3-.2-5.9-2.38-8.9a20.29,20.29,0,0,0-6.82-5.53l-.13-.08-.13.08a37.2,37.2,0,0,0-6.4,5.51,51.63,51.63,0,0,0-4.85,6.17,13.87,13.87,0,0,0-3.43-7.88,16.69,16.69,0,0,0-5.84-3.82l-.2-.06-.12.16L672.3,122a12.68,12.68,0,0,1,1.76.94,3.8,3.8,0,0,1,1.8,3.33V165c0,5.23,1.66,7.37,2.48,8.38,1.3,1.7,4.43,2.95,4.56,3l.2.07,9-11a3.51,3.51,0,0,1-3.24-1.66,5.89,5.89,0,0,1-1-3.31l0-32.19c0-2.12,2.58-4.35,5-4.35s3.63,2.25,3.63,4.35v36.65c0,5.26,1.66,7.4,2.47,8.41,1.31,1.69,4.44,2.95,4.57,3l.19.06,8.85-11a4.82,4.82,0,0,1-3.24-1.64ZM214.19,114.9a8.52,8.52,0,0,1-3.41,1.11,7.48,7.48,0,0,1-4.42-.52,13.62,13.62,0,0,1-2.46-1.8.88.88,0,0,0-1.23.25l-7.45,8.67a13.82,13.82,0,0,0-3.31-7,16.2,16.2,0,0,0-5.84-3.81l-.22-.07-.11.18L180,122.11a4.72,4.72,0,0,1,2.33.88,3.83,3.83,0,0,1,1.09,3.31v38.63c0,5.25,1.68,7.39,2.48,8.4,1.3,1.69,4.78,3.06,4.78,3.06l8.91-10.91a4.84,4.84,0,0,1-3.19-1.66,5.49,5.49,0,0,1-.94-3.44l0-33.71a7.14,7.14,0,0,1,3.07-2.92,9.59,9.59,0,0,0,4.59,2.51c2.28.49,4.66-.16,7.33-2.52a16.72,16.72,0,0,0,4.68-8.21ZM422.6,172.81a4,4,0,1,1,4,4.11,4.08,4.08,0,0,1-4-4.11Zm9,0a4,4,0,1,1,6.86,2.88,4.12,4.12,0,0,1-2.86,1.23,4.07,4.07,0,0,1-4-4.11Zm9,0a4,4,0,1,1,4,4.11,4.08,4.08,0,0,1-4-4.11ZM427,165.05a4,4,0,1,1,4,4.13,4.06,4.06,0,0,1-4-4.13Zm9,0a4,4,0,1,1,4,4.13,4.06,4.06,0,0,1-4-4.13Zm-17.73-2.47a4,4,0,1,1,8,0,4.05,4.05,0,0,1-4,4.14,4.09,4.09,0,0,1-4-4.14Zm26.36,0a4,4,0,1,1,4,4.14,4.08,4.08,0,0,1-4-4.14Zm-45.26.8a17.64,17.64,0,0,1-.14-2.14c0-.29,0-.81,0-.91a5.77,5.77,0,0,1-4.07-1,9.15,9.15,0,0,1-3-4,8,8,0,0,1-.6-2.25A16.47,16.47,0,0,0,381,156c-3.61,2.51-2.81,5.82-2.4,6.83-2.64.32-4.73,3.85-12.61-1.93a13.71,13.71,0,0,0,8.52,8.81,12.5,12.5,0,0,1-7.48,2.35,14.28,14.28,0,0,0,13.54,4.75c7.59-1.21,11.37-5.36,10.08-7.61l-1.17-2.07a8.42,8.42,0,0,1,1.62-.43c3.47-.55,7-.12,8.85.8l-9.37,10.2s-1.34,1.44-.33,2.57a1.64,1.64,0,0,0,2.53.05l9-9.73a20.71,20.71,0,0,1-2.37-7.2Zm-14.57,9.44-5.21-10.16a5.93,5.93,0,0,1-.21-1.52,3.41,3.41,0,0,1,1.62-3s4.71,9.61,4.86,9.58c-2.1,1.78-1.63,3.65-1.06,5.07Zm0,0"/><path class="cls-2" d="M413.07,158.42l5-5.33-2.48-2.27-3.78,4c-.89-4.29-.62-8-3.95-7.53a6.33,6.33,0,0,0-2.92,1.25c-.88-2,.44-8.68.67-11.29.2-2.4-.62-3.49-1.81-3.65a4.74,4.74,0,0,0-2.92.43c-1.62-2.53-1.14-6.78.1-10.9,1.85-6.22,8.59-12.91,12.28-16.2l1.71,1.91,1.84-1.4.76-.77L416,104.85c.24-.19.32-.27.32-.27l-3.54-3.66s-.13.12-.34.35L411.31,100l.34-.32-2.13-2.25s-.13.14-.33.32l-1.06-1.14.38-.36-2.06-2.12-.31.22-1.31-1.45,3.72-1-12.22-5.76L401.13,98,402.24,95l1.29,1.35c-10.08,8.87-15.87,18.81-17.11,30.16-1.1,10,2.22,14.39,3.7,15.81a5.68,5.68,0,0,0,3,1.61,28.07,28.07,0,0,0-1.09,9.12v0a14.4,14.4,0,0,0,.68,2.14,8.52,8.52,0,0,0,2.89,3.62,5.36,5.36,0,0,0,4.24.68l.13,0v.15a18.39,18.39,0,0,0,.17,3.72,23.27,23.27,0,0,0,2.18,6.6h0c1.11,2.2,3.42,4.66,6.11,4.66,3.82,0,3.32-4.16,4.64-6.33,1.69-2.74,5.33-5,3.61-7.63a4.73,4.73,0,0,0-3.63-2.24Zm-3.88-56.13,2.4,2.59-2.06,1.85a1.87,1.87,0,0,1-2.22-.38,1.83,1.83,0,0,1,0-2.42,18.54,18.54,0,0,1,1.84-1.64Zm-5.81-2.11c.11-.09,1-.94,2.1-2l2.41,2.64c-1.14,1.1-1.8,1.68-2,1.85a1.78,1.78,0,0,1-2.51-2.52ZM393,142.87a6.57,6.57,0,0,1-3.09-2.44l10.28-4.86c.67,2.16,1.61,2.33,3.5,2.16Zm8.1,15.09c-2.46,1.53-4.19.58-5.54-.6l8.38-7.11c.88,4.09,4.06,1.09,4.86.75-1.79,1.6-7.6,6.9-7.7,7Zm10.23,11.67c-.53,1.79-.75,3.46-2,3.71-.75.17-1.1.53-2.66-.73l6.21-9.62a2.49,2.49,0,0,0,3.1-.25c-1.2,1.39-4.17,5.34-4.63,6.89Zm-7.1-25.37h0Zm0,0"/><path class="cls-2" d="M438.9,99.11l-2.81-3.78V93.87a1.87,1.87,0,1,0-2.41-1.76A1.86,1.86,0,0,0,435,93.89v1.47l-2.76,3.7c-15.16,1.66-26.56,14.79-26.56,30.58,0,17,13.33,30.76,29.72,30.76s29.77-13.8,29.77-30.76c0-15.6-11.29-28.72-26.24-30.53Zm-21.72,52.05a29,29,0,0,1-9.48-21.52c0-13.68,9.72-25.67,22.67-28.14-.53.74-18.16,24.36-18.16,24.36l3.18,2.59,1-1.4h.75Zm13.61,6.7c0-2.41,0-8.05,0-8.22a4.67,4.67,0,0,1,4.59-4.76,4.73,4.73,0,0,1,4.66,4.76c.05.17.06,5.76.05,8.19a25.78,25.78,0,0,1-9.35,0ZM452,152.48a26.5,26.5,0,0,1-5.54,3.36v-7.58l.62,0v-2.43h-1.42c-1.31-3.88-4.15-6.76-8.18-7.34v-.93h-4.05l0,.93a10.94,10.94,0,0,0-8.24,7.34h-1.4v2.43l.61,0v7.66a27.57,27.57,0,0,1-5.39-3.18V127h33Zm1.87-1.61V127h.72l1.1,1.44.13-.12,3-2.48s-17.56-23.54-18.13-24.28c13,2.64,22.31,14.35,22.31,28.07a29,29,0,0,1-9.16,21.22Zm0,0"/><rect x="426.38" y="130.9" width="17.42" height="3.46"/></svg>